<?xml version="1.0" encoding="UTF-8" standalone="no"?>
<!DOCTYPE svg PUBLIC "-//W3C//DTD SVG 1.1//EN"
 "http://www.w3.org/Graphics/SVG/1.1/DTD/svg11.dtd">
<!-- Generated by graphviz version 2.44.1 (20200629.0846)
 -->
<!-- Title: g Pages: 1 -->
<svg width="1289pt" height="1354pt"
 viewBox="0.00 0.00 1289.00 1354.40" xmlns="http://www.w3.org/2000/svg" xmlns:xlink="http://www.w3.org/1999/xlink">
<g id="graph0" class="graph" transform="scale(1 1) rotate(0) translate(4 1350.4)">
<title>g</title>
<polygon fill="white" stroke="transparent" points="-4,4 -4,-1350.4 1285,-1350.4 1285,4 -4,4"/>
<g id="clust1" class="cluster">
<title>cluster_1245635613</title>
<polygon fill="#ececec" stroke="black" points="8,-8 8,-1338.4 1273,-1338.4 1273,-8 8,-8"/>
<text text-anchor="middle" x="33.89" y="-1321.8" font-family="Times New Roman,serif" font-size="14.00">github</text>
</g>
<g id="clust2" class="cluster">
<title>cluster_188904894</title>
<polygon fill="#d8d8d8" stroke="black" points="16,-16 16,-1305.6 1265,-1305.6 1265,-16 16,-16"/>
<text text-anchor="middle" x="68.32" y="-1289" font-family="Times New Roman,serif" font-size="14.00">samuelsantos20</text>
</g>
<!-- Approval1536019296 -->
<g id="node1" class="node">
<title>Approval1536019296</title>
<polygon fill="#ffffff" stroke="transparent" points="957.5,-1272.8 684.5,-1272.8 684.5,-1054.8 957.5,-1054.8 957.5,-1272.8"/>
<text text-anchor="start" x="690" y="-1255.2" font-family="Times New Roman,serif" font-size="14.00">(C)Approval</text>
<text text-anchor="start" x="689.92" y="-1231.2" font-family="Times New Roman,serif" font-size="14.00">&#45; &#160;&#160;approvalDateCreated: LocalDateTime [0..1]</text>
<text text-anchor="start" x="690" y="-1207.2" font-family="Times New Roman,serif" font-size="14.00">&#45; &#160;&#160;approvalDateUpdate: LocalDateTime [0..1]</text>
<text text-anchor="start" x="690" y="-1183.2" font-family="Times New Roman,serif" font-size="14.00">&#45; &#160;&#160;approvalId: UUID [0..1]</text>
<text text-anchor="start" x="690" y="-1159.2" font-family="Times New Roman,serif" font-size="14.00">&#45; &#160;&#160;approvalStatus: ApprovalStatus [0..1]</text>
<text text-anchor="start" x="690" y="-1135.2" font-family="Times New Roman,serif" font-size="14.00">&#45; &#160;&#160;comments: String [0..1]</text>
<text text-anchor="start" x="690" y="-1111.2" font-family="Times New Roman,serif" font-size="14.00">&#45; &#160;&#160;timesheet: Timesheet [0..1]</text>
<text text-anchor="start" x="690" y="-1087.2" font-family="Times New Roman,serif" font-size="14.00">&#45; &#160;&#160;user: User [0..1]</text>
<text text-anchor="start" x="690" y="-1063.2" font-family="Times New Roman,serif" font-size="14.00"># canEqual(other: Object): boolean</text>
<polygon fill="black" stroke="black" points="685,-1247.8 685,-1247.8 958,-1247.8 958,-1247.8 685,-1247.8"/>
<polygon fill="black" stroke="black" points="685,-1079.8 685,-1079.8 958,-1079.8 958,-1079.8 685,-1079.8"/>
<polygon fill="none" stroke="black" points="684.5,-1054.8 684.5,-1272.8 957.5,-1272.8 957.5,-1054.8 684.5,-1054.8"/>
</g>
<!-- Timesheet1536019296 -->
<g id="node8" class="node">
<title>Timesheet1536019296</title>
<polygon fill="#ffffff" stroke="transparent" points="1122.5,-901.2 869.5,-901.2 869.5,-659.2 1122.5,-659.2 1122.5,-901.2"/>
<text text-anchor="start" x="875" y="-883.6" font-family="Times New Roman,serif" font-size="14.00">(C)Timesheet</text>
<text text-anchor="start" x="875" y="-859.6" font-family="Times New Roman,serif" font-size="14.00">&#45; &#160;&#160;approval: Approval [0..1]</text>
<text text-anchor="start" x="875" y="-835.6" font-family="Times New Roman,serif" font-size="14.00">&#45; &#160;&#160;month: int [1]</text>
<text text-anchor="start" x="874.63" y="-811.6" font-family="Times New Roman,serif" font-size="14.00">&#45; &#160;&#160;timeSheetCreated: LocalDateTime [0..1]</text>
<text text-anchor="start" x="875" y="-787.6" font-family="Times New Roman,serif" font-size="14.00">&#45; &#160;&#160;timeSheetUpdate: LocalDateTime [0..1]</text>
<text text-anchor="start" x="875" y="-763.6" font-family="Times New Roman,serif" font-size="14.00">&#45; &#160;&#160;timesheetId: UUID [0..1]</text>
<text text-anchor="start" x="875" y="-739.6" font-family="Times New Roman,serif" font-size="14.00">&#45; &#160;&#160;totalHours: Duration [0..1]</text>
<text text-anchor="start" x="875" y="-715.6" font-family="Times New Roman,serif" font-size="14.00">&#45; &#160;&#160;userId: User [0..1]</text>
<text text-anchor="start" x="875" y="-691.6" font-family="Times New Roman,serif" font-size="14.00">&#45; &#160;&#160;workEntries: List&lt;WorkEntry&gt; [0..*]</text>
<text text-anchor="start" x="875" y="-667.6" font-family="Times New Roman,serif" font-size="14.00">&#45; &#160;&#160;year: int [1]</text>
<polygon fill="black" stroke="black" points="870,-876.2 870,-876.2 1123,-876.2 1123,-876.2 870,-876.2"/>
<polygon fill="none" stroke="black" points="869.5,-659.2 869.5,-901.2 1122.5,-901.2 1122.5,-659.2 869.5,-659.2"/>
</g>
<!-- Approval1536019296&#45;&gt;Timesheet1536019296 -->
<g id="edge1" class="edge">
<title>Approval1536019296&#45;&gt;Timesheet1536019296</title>
<path fill="none" stroke="black" d="M870.56,-1054.72C891.12,-1009.89 915.15,-957.5 936.64,-910.64"/>
<polygon fill="black" stroke="black" points="939.91,-911.9 940.9,-901.35 933.55,-908.98 939.91,-911.9"/>
<text text-anchor="middle" x="918.83" y="-1024.2" font-family="Times New Roman,serif" font-size="14.00">timesheet</text>
<text text-anchor="middle" x="918.83" y="-1007.4" font-family="Times New Roman,serif" font-size="14.00">[0..1]</text>
</g>
<!-- User1536019296 -->
<g id="node10" class="node">
<title>User1536019296</title>
<polygon fill="#ffffff" stroke="transparent" points="887.5,-505.6 650.5,-505.6 650.5,-287.6 887.5,-287.6 887.5,-505.6"/>
<text text-anchor="start" x="656" y="-488" font-family="Times New Roman,serif" font-size="14.00">(C)User</text>
<text text-anchor="start" x="656" y="-464" font-family="Times New Roman,serif" font-size="14.00">&#45; &#160;&#160;employees: List&lt;Employee&gt; [0..*]</text>
<text text-anchor="start" x="656" y="-440" font-family="Times New Roman,serif" font-size="14.00">&#45; &#160;&#160;id: UUID [0..1]</text>
<text text-anchor="start" x="656" y="-416" font-family="Times New Roman,serif" font-size="14.00">&#45; &#160;&#160;managers: List&lt;Manager&gt; [0..*]</text>
<text text-anchor="start" x="656" y="-392" font-family="Times New Roman,serif" font-size="14.00">&#45; &#160;&#160;password: String [0..1]</text>
<text text-anchor="start" x="656" y="-368" font-family="Times New Roman,serif" font-size="14.00">&#45; &#160;&#160;registration: String [0..1]</text>
<text text-anchor="start" x="656" y="-344" font-family="Times New Roman,serif" font-size="14.00"># &#160;&#160;roles: List&lt;String&gt; [0..*]</text>
<text text-anchor="start" x="656" y="-320" font-family="Times New Roman,serif" font-size="14.00">&#45; &#160;&#160;timesheets: List&lt;Timesheet&gt; [0..*]</text>
<text text-anchor="start" x="655.66" y="-296" font-family="Times New Roman,serif" font-size="14.00"># &#160;&#160;workEntries: List&lt;WorkEntry&gt; [0..*]</text>
<polygon fill="black" stroke="black" points="651,-480.6 651,-480.6 888,-480.6 888,-480.6 651,-480.6"/>
<polygon fill="none" stroke="black" points="650.5,-287.6 650.5,-505.6 887.5,-505.6 887.5,-287.6 650.5,-287.6"/>
</g>
<!-- Approval1536019296&#45;&gt;User1536019296 -->
<g id="edge2" class="edge">
<title>Approval1536019296&#45;&gt;User1536019296</title>
<path fill="none" stroke="black" d="M816.03,-1054.68C808.23,-884.97 794,-575.2 794,-575.2 794,-575.2 790.26,-548.64 785.67,-516.05"/>
<polygon fill="black" stroke="black" points="789.09,-515.19 784.23,-505.77 782.16,-516.16 789.09,-515.19"/>
<text text-anchor="middle" x="827.16" y="-784.4" font-family="Times New Roman,serif" font-size="14.00">user</text>
<text text-anchor="middle" x="827.16" y="-767.6" font-family="Times New Roman,serif" font-size="14.00">[0..1]</text>
</g>
<!-- ApprovalResponse1731196886 -->
<g id="node2" class="node">
<title>ApprovalResponse1731196886</title>
<polygon fill="#ffffff" stroke="transparent" points="1254,-1272.8 976,-1272.8 976,-1054.8 1254,-1054.8 1254,-1272.8"/>
<text text-anchor="start" x="981" y="-1255.2" font-family="Times New Roman,serif" font-size="14.00">(C)ApprovalResponse</text>
<text text-anchor="start" x="981" y="-1231.2" font-family="Times New Roman,serif" font-size="14.00">&#45; &#160;&#160;approvalStatus: ApprovalStatus [0..1]</text>
<text text-anchor="start" x="980.7" y="-1207.2" font-family="Times New Roman,serif" font-size="14.00">&#45; &#160;&#160;approvalUserDTO: ApprovalUserDTO [0..1]</text>
<text text-anchor="start" x="981" y="-1183.2" font-family="Times New Roman,serif" font-size="14.00">&#45; &#160;&#160;comments: String [0..1]</text>
<text text-anchor="start" x="981" y="-1159.2" font-family="Times New Roman,serif" font-size="14.00">&#45; &#160;&#160;timesheet: Timesheet [0..1]</text>
<text text-anchor="start" x="981" y="-1135.2" font-family="Times New Roman,serif" font-size="14.00">+ approvalStatus(): ApprovalStatus</text>
<text text-anchor="start" x="981" y="-1111.2" font-family="Times New Roman,serif" font-size="14.00">+ approvalUserDTO(): ApprovalUserDTO</text>
<text text-anchor="start" x="981" y="-1087.2" font-family="Times New Roman,serif" font-size="14.00">+ comments(): String</text>
<text text-anchor="start" x="981" y="-1063.2" font-family="Times New Roman,serif" font-size="14.00">+ timesheet(): Timesheet</text>
<polygon fill="black" stroke="black" points="976,-1247.8 976,-1247.8 1254,-1247.8 1254,-1247.8 976,-1247.8"/>
<polygon fill="black" stroke="black" points="976,-1151.8 976,-1151.8 1254,-1151.8 1254,-1151.8 976,-1151.8"/>
<polygon fill="none" stroke="black" points="976,-1054.8 976,-1272.8 1254,-1272.8 1254,-1054.8 976,-1054.8"/>
</g>
<!-- ApprovalResponse1731196886&#45;&gt;Timesheet1536019296 -->
<g id="edge3" class="edge">
<title>ApprovalResponse1731196886&#45;&gt;Timesheet1536019296</title>
<path fill="none" stroke="black" d="M1081.3,-1054.72C1067.35,-1009.99 1051.05,-957.72 1036.46,-910.93"/>
<polygon fill="black" stroke="black" points="1039.79,-909.85 1033.47,-901.35 1033.1,-911.94 1039.79,-909.85"/>
<text text-anchor="middle" x="1099.83" y="-1024.2" font-family="Times New Roman,serif" font-size="14.00">timesheet</text>
<text text-anchor="middle" x="1099.83" y="-1007.4" font-family="Times New Roman,serif" font-size="14.00">[0..1]</text>
</g>
<!-- CustomAuthentication1757435991 -->
<g id="node3" class="node">
<title>CustomAuthentication1757435991</title>
<polygon fill="#ffffff" stroke="transparent" points="784.5,-805.2 629.5,-805.2 629.5,-755.2 784.5,-755.2 784.5,-805.2"/>
<text text-anchor="start" x="634.79" y="-787.6" font-family="Times New Roman,serif" font-size="14.00">(C)CustomAuthentication</text>
<text text-anchor="start" x="635" y="-763.6" font-family="Times New Roman,serif" font-size="14.00">&#45; &#160;&#160;user: User [0..1]</text>
<polygon fill="black" stroke="black" points="630,-780.2 630,-780.2 785,-780.2 785,-780.2 630,-780.2"/>
<polygon fill="none" stroke="black" points="629.5,-755.2 629.5,-805.2 784.5,-805.2 784.5,-755.2 629.5,-755.2"/>
</g>
<!-- CustomAuthentication1757435991&#45;&gt;User1536019296 -->
<g id="edge4" class="edge">
<title>CustomAuthentication1757435991&#45;&gt;User1536019296</title>
<path fill="none" stroke="black" d="M710.93,-755.04C718.59,-707.84 736.02,-600.59 749.79,-515.81"/>
<polygon fill="black" stroke="black" points="753.26,-516.28 751.41,-505.85 746.35,-515.16 753.26,-516.28"/>
<text text-anchor="middle" x="762.16" y="-544.6" font-family="Times New Roman,serif" font-size="14.00">user</text>
<text text-anchor="middle" x="762.16" y="-527.8" font-family="Times New Roman,serif" font-size="14.00">[0..1]</text>
</g>
<!-- Employee1536019296 -->
<g id="node4" class="node">
<title>Employee1536019296</title>
<polygon fill="#ffffff" stroke="transparent" points="860.5,-218 697.5,-218 697.5,-24 860.5,-24 860.5,-218"/>
<text text-anchor="start" x="703" y="-200.4" font-family="Times New Roman,serif" font-size="14.00">(C)Employee</text>
<text text-anchor="start" x="702.71" y="-176.4" font-family="Times New Roman,serif" font-size="14.00">&#45; &#160;&#160;department: String [0..1]</text>
<text text-anchor="start" x="703" y="-152.4" font-family="Times New Roman,serif" font-size="14.00">&#45; &#160;&#160;email: String [0..1]</text>
<text text-anchor="start" x="703" y="-128.4" font-family="Times New Roman,serif" font-size="14.00">&#45; &#160;&#160;firstName: String [0..1]</text>
<text text-anchor="start" x="703" y="-104.4" font-family="Times New Roman,serif" font-size="14.00">&#45; &#160;&#160;id: UUID [0..1]</text>
<text text-anchor="start" x="703" y="-80.4" font-family="Times New Roman,serif" font-size="14.00">&#45; &#160;&#160;lastName: String [0..1]</text>
<text text-anchor="start" x="703" y="-56.4" font-family="Times New Roman,serif" font-size="14.00">&#45; &#160;&#160;position: String [0..1]</text>
<text text-anchor="start" x="703" y="-32.4" font-family="Times New Roman,serif" font-size="14.00">&#45; &#160;&#160;user: User [0..1]</text>
<polygon fill="black" stroke="black" points="698,-193 698,-193 861,-193 861,-193 698,-193"/>
<polygon fill="none" stroke="black" points="697.5,-24 697.5,-218 860.5,-218 860.5,-24 697.5,-24"/>
</g>
<!-- Employee1536019296&#45;&gt;User1536019296 -->
<g id="edge5" class="edge">
<title>Employee1536019296&#45;&gt;User1536019296</title>
<path fill="none" stroke="black" d="M787.44,-218.19C788.38,-228.88 789,-236 789,-236 789,-236 789,-269.6 789,-269.6 789,-269.6 788.54,-272.49 787.76,-277.39"/>
<polygon fill="black" stroke="black" points="784.29,-276.96 786.18,-287.39 791.2,-278.06 784.29,-276.96"/>
<text text-anchor="middle" x="804.16" y="-257" font-family="Times New Roman,serif" font-size="14.00">user</text>
<text text-anchor="middle" x="804.16" y="-240.2" font-family="Times New Roman,serif" font-size="14.00">[0..1]</text>
</g>
<!-- EmployeeDTO1731196886 -->
<g id="node5" class="node">
<title>EmployeeDTO1731196886</title>
<polygon fill="#ffffff" stroke="transparent" points="611.5,-937.2 462.5,-937.2 462.5,-623.2 611.5,-623.2 611.5,-937.2"/>
<text text-anchor="start" x="468" y="-919.6" font-family="Times New Roman,serif" font-size="14.00">(C)EmployeeDTO</text>
<text text-anchor="start" x="467.71" y="-895.6" font-family="Times New Roman,serif" font-size="14.00">&#45; &#160;&#160;department: String [1]</text>
<text text-anchor="start" x="468" y="-871.6" font-family="Times New Roman,serif" font-size="14.00">&#45; &#160;&#160;email: String [1]</text>
<text text-anchor="start" x="468" y="-847.6" font-family="Times New Roman,serif" font-size="14.00">&#45; &#160;&#160;firstName: String [1]</text>
<text text-anchor="start" x="468" y="-823.6" font-family="Times New Roman,serif" font-size="14.00">&#45; &#160;&#160;lastName: String [1]</text>
<text text-anchor="start" x="468" y="-799.6" font-family="Times New Roman,serif" font-size="14.00">&#45; &#160;&#160;position: String [1]</text>
<text text-anchor="start" x="468" y="-775.6" font-family="Times New Roman,serif" font-size="14.00">&#45; &#160;&#160;user: User [0..1]</text>
<text text-anchor="start" x="468" y="-751.6" font-family="Times New Roman,serif" font-size="14.00">+ department(): String</text>
<text text-anchor="start" x="468" y="-727.6" font-family="Times New Roman,serif" font-size="14.00">+ email(): String</text>
<text text-anchor="start" x="468" y="-703.6" font-family="Times New Roman,serif" font-size="14.00">+ firstName(): String</text>
<text text-anchor="start" x="468" y="-679.6" font-family="Times New Roman,serif" font-size="14.00">+ lastName(): String</text>
<text text-anchor="start" x="468" y="-655.6" font-family="Times New Roman,serif" font-size="14.00">+ position(): String</text>
<text text-anchor="start" x="468" y="-631.6" font-family="Times New Roman,serif" font-size="14.00">+ user(): User</text>
<polygon fill="black" stroke="black" points="463,-912.2 463,-912.2 612,-912.2 612,-912.2 463,-912.2"/>
<polygon fill="black" stroke="black" points="463,-768.2 463,-768.2 612,-768.2 612,-768.2 463,-768.2"/>
<polygon fill="none" stroke="black" points="462.5,-623.2 462.5,-937.2 611.5,-937.2 611.5,-623.2 462.5,-623.2"/>
</g>
<!-- EmployeeDTO1731196886&#45;&gt;User1536019296 -->
<g id="edge6" class="edge">
<title>EmployeeDTO1731196886&#45;&gt;User1536019296</title>
<path fill="none" stroke="black" d="M601.31,-623.03C612.69,-595.37 621,-575.2 621,-575.2 621,-575.2 644.3,-547.24 672.4,-513.51"/>
<polygon fill="black" stroke="black" points="675.14,-515.7 678.86,-505.77 669.77,-511.21 675.14,-515.7"/>
<text text-anchor="middle" x="675.16" y="-544.6" font-family="Times New Roman,serif" font-size="14.00">user</text>
<text text-anchor="middle" x="675.16" y="-527.8" font-family="Times New Roman,serif" font-size="14.00">[0..1]</text>
</g>
<!-- Manager1536019296 -->
<g id="node6" class="node">
<title>Manager1536019296</title>
<polygon fill="#ffffff" stroke="transparent" points="679.5,-206 516.5,-206 516.5,-36 679.5,-36 679.5,-206"/>
<text text-anchor="start" x="522" y="-188.4" font-family="Times New Roman,serif" font-size="14.00">(C)Manager</text>
<text text-anchor="start" x="521.71" y="-164.4" font-family="Times New Roman,serif" font-size="14.00">&#45; &#160;&#160;department: String [0..1]</text>
<text text-anchor="start" x="522" y="-140.4" font-family="Times New Roman,serif" font-size="14.00">&#45; &#160;&#160;email: String [0..1]</text>
<text text-anchor="start" x="522" y="-116.4" font-family="Times New Roman,serif" font-size="14.00">&#45; &#160;&#160;firstName: String [0..1]</text>
<text text-anchor="start" x="522" y="-92.4" font-family="Times New Roman,serif" font-size="14.00">&#45; &#160;&#160;lastName: String [0..1]</text>
<text text-anchor="start" x="522" y="-68.4" font-family="Times New Roman,serif" font-size="14.00">&#45; &#160;&#160;managerId: UUID [0..1]</text>
<text text-anchor="start" x="522" y="-44.4" font-family="Times New Roman,serif" font-size="14.00">&#45; &#160;&#160;user: User [0..1]</text>
<polygon fill="black" stroke="black" points="517,-181 517,-181 680,-181 680,-181 517,-181"/>
<polygon fill="none" stroke="black" points="516.5,-36 516.5,-206 679.5,-206 679.5,-36 516.5,-36"/>
</g>
<!-- Manager1536019296&#45;&gt;User1536019296 -->
<g id="edge7" class="edge">
<title>Manager1536019296&#45;&gt;User1536019296</title>
<path fill="none" stroke="black" d="M598.39,-206.15C598.54,-239.29 598.68,-269.6 598.68,-269.6 598.68,-269.6 617.18,-283.29 641.98,-301.64"/>
<polygon fill="black" stroke="black" points="640.12,-304.61 650.24,-307.75 644.29,-298.99 640.12,-304.61"/>
<text text-anchor="middle" x="613.16" y="-257" font-family="Times New Roman,serif" font-size="14.00">user</text>
<text text-anchor="middle" x="613.16" y="-240.2" font-family="Times New Roman,serif" font-size="14.00">[0..1]</text>
</g>
<!-- ManagerDTO1731196886 -->
<g id="node7" class="node">
<title>ManagerDTO1731196886</title>
<polygon fill="#ffffff" stroke="transparent" points="444.5,-913.2 295.5,-913.2 295.5,-647.2 444.5,-647.2 444.5,-913.2"/>
<text text-anchor="start" x="301" y="-895.6" font-family="Times New Roman,serif" font-size="14.00">(C)ManagerDTO</text>
<text text-anchor="start" x="300.71" y="-871.6" font-family="Times New Roman,serif" font-size="14.00">&#45; &#160;&#160;department: String [1]</text>
<text text-anchor="start" x="301" y="-847.6" font-family="Times New Roman,serif" font-size="14.00">&#45; &#160;&#160;email: String [1]</text>
<text text-anchor="start" x="301" y="-823.6" font-family="Times New Roman,serif" font-size="14.00">&#45; &#160;&#160;firstName: String [1]</text>
<text text-anchor="start" x="301" y="-799.6" font-family="Times New Roman,serif" font-size="14.00">&#45; &#160;&#160;lastName: String [1]</text>
<text text-anchor="start" x="301" y="-775.6" font-family="Times New Roman,serif" font-size="14.00">&#45; &#160;&#160;user: User [0..1]</text>
<text text-anchor="start" x="301" y="-751.6" font-family="Times New Roman,serif" font-size="14.00">+ department(): String</text>
<text text-anchor="start" x="301" y="-727.6" font-family="Times New Roman,serif" font-size="14.00">+ email(): String</text>
<text text-anchor="start" x="301" y="-703.6" font-family="Times New Roman,serif" font-size="14.00">+ firstName(): String</text>
<text text-anchor="start" x="301" y="-679.6" font-family="Times New Roman,serif" font-size="14.00">+ lastName(): String</text>
<text text-anchor="start" x="301" y="-655.6" font-family="Times New Roman,serif" font-size="14.00">+ user(): User</text>
<polygon fill="black" stroke="black" points="296,-888.2 296,-888.2 445,-888.2 445,-888.2 296,-888.2"/>
<polygon fill="black" stroke="black" points="296,-768.2 296,-768.2 445,-768.2 445,-768.2 296,-768.2"/>
<polygon fill="none" stroke="black" points="295.5,-647.2 295.5,-913.2 444.5,-913.2 444.5,-647.2 295.5,-647.2"/>
</g>
<!-- ManagerDTO1731196886&#45;&gt;User1536019296 -->
<g id="edge8" class="edge">
<title>ManagerDTO1731196886&#45;&gt;User1536019296</title>
<path fill="none" stroke="black" d="M424.38,-647.12C440.53,-607.9 454,-575.2 454,-575.2 454,-575.2 554.08,-518.78 641.41,-469.54"/>
<polygon fill="black" stroke="black" points="643.37,-472.45 650.36,-464.49 639.93,-466.35 643.37,-472.45"/>
<text text-anchor="middle" x="553.16" y="-544.6" font-family="Times New Roman,serif" font-size="14.00">user</text>
<text text-anchor="middle" x="553.16" y="-527.8" font-family="Times New Roman,serif" font-size="14.00">[0..1]</text>
</g>
<!-- Timesheet1536019296&#45;&gt;User1536019296 -->
<g id="edge9" class="edge">
<title>Timesheet1536019296&#45;&gt;User1536019296</title>
<path fill="none" stroke="black" d="M924.49,-658.98C897.08,-612.91 865.87,-560.44 838.64,-514.66"/>
<polygon fill="black" stroke="black" points="841.54,-512.7 833.42,-505.9 835.53,-516.28 841.54,-512.7"/>
<text text-anchor="middle" x="879.49" y="-544.6" font-family="Times New Roman,serif" font-size="14.00">userId</text>
<text text-anchor="middle" x="879.49" y="-527.8" font-family="Times New Roman,serif" font-size="14.00">[0..1]</text>
</g>
<!-- TimesheetDTO1731196886 -->
<g id="node9" class="node">
<title>TimesheetDTO1731196886</title>
<polygon fill="#ffffff" stroke="transparent" points="277.5,-985.2 24.5,-985.2 24.5,-575.2 277.5,-575.2 277.5,-985.2"/>
<text text-anchor="start" x="30" y="-967.6" font-family="Times New Roman,serif" font-size="14.00">(C)TimesheetDTO</text>
<text text-anchor="start" x="30" y="-943.6" font-family="Times New Roman,serif" font-size="14.00">&#45; &#160;&#160;approval: Approval [0..1]</text>
<text text-anchor="start" x="30" y="-919.6" font-family="Times New Roman,serif" font-size="14.00">&#45; &#160;&#160;month: int [1]</text>
<text text-anchor="start" x="29.63" y="-895.6" font-family="Times New Roman,serif" font-size="14.00">&#45; &#160;&#160;timeSheetCreated: LocalDateTime [0..1]</text>
<text text-anchor="start" x="30" y="-871.6" font-family="Times New Roman,serif" font-size="14.00">&#45; &#160;&#160;timeSheetUpdate: LocalDateTime [0..1]</text>
<text text-anchor="start" x="30" y="-847.6" font-family="Times New Roman,serif" font-size="14.00">&#45; &#160;&#160;totalHours: Duration [0..1]</text>
<text text-anchor="start" x="30" y="-823.6" font-family="Times New Roman,serif" font-size="14.00">&#45; &#160;&#160;userId: User [1]</text>
<text text-anchor="start" x="30" y="-799.6" font-family="Times New Roman,serif" font-size="14.00">&#45; &#160;&#160;workEntries: List&lt;WorkEntry&gt; [0..*]</text>
<text text-anchor="start" x="30" y="-775.6" font-family="Times New Roman,serif" font-size="14.00">&#45; &#160;&#160;year: int [1]</text>
<text text-anchor="start" x="30" y="-751.6" font-family="Times New Roman,serif" font-size="14.00">+ approval(): Approval</text>
<text text-anchor="start" x="30" y="-727.6" font-family="Times New Roman,serif" font-size="14.00">+ month(): int</text>
<text text-anchor="start" x="30" y="-703.6" font-family="Times New Roman,serif" font-size="14.00">+ timeSheetCreated(): LocalDateTime</text>
<text text-anchor="start" x="30" y="-679.6" font-family="Times New Roman,serif" font-size="14.00">+ timeSheetUpdate(): LocalDateTime</text>
<text text-anchor="start" x="30" y="-655.6" font-family="Times New Roman,serif" font-size="14.00">+ totalHours(): Duration</text>
<text text-anchor="start" x="30" y="-631.6" font-family="Times New Roman,serif" font-size="14.00">+ userId(): User</text>
<text text-anchor="start" x="30" y="-607.6" font-family="Times New Roman,serif" font-size="14.00">+ workEntries(): List&lt;WorkEntry&gt;</text>
<text text-anchor="start" x="30" y="-583.6" font-family="Times New Roman,serif" font-size="14.00">+ year(): int</text>
<polygon fill="black" stroke="black" points="25,-960.2 25,-960.2 278,-960.2 278,-960.2 25,-960.2"/>
<polygon fill="black" stroke="black" points="25,-768.2 25,-768.2 278,-768.2 278,-768.2 25,-768.2"/>
<polygon fill="none" stroke="black" points="24.5,-575.2 24.5,-985.2 277.5,-985.2 277.5,-575.2 24.5,-575.2"/>
</g>
<!-- TimesheetDTO1731196886&#45;&gt;User1536019296 -->
<g id="edge10" class="edge">
<title>TimesheetDTO1731196886&#45;&gt;User1536019296</title>
<path fill="none" stroke="black" d="M277.65,-589.22C283.51,-580.43 287,-575.2 287,-575.2 287,-575.2 497.95,-497.47 640.74,-444.86"/>
<polygon fill="black" stroke="black" points="642.3,-448.01 650.47,-441.27 639.88,-441.45 642.3,-448.01"/>
<text text-anchor="middle" x="433.49" y="-544.6" font-family="Times New Roman,serif" font-size="14.00">userId</text>
<text text-anchor="middle" x="433.49" y="-527.8" font-family="Times New Roman,serif" font-size="14.00">[1]</text>
</g>
<!-- User1536019296&#45;&gt;Employee1536019296 -->
<g id="edge11" class="edge">
<title>User1536019296&#45;&gt;Employee1536019296</title>
<path fill="none" stroke="black" d="M731.32,-287.39C727.58,-276.64 725.13,-269.6 725.13,-269.6 725.13,-269.6 725.13,-236 725.13,-236 725.13,-236 726.65,-232.78 729.18,-227.43"/>
<polygon fill="black" stroke="black" points="732.44,-228.72 733.55,-218.19 726.11,-225.73 732.44,-228.72"/>
<text text-anchor="middle" x="754.93" y="-257" font-family="Times New Roman,serif" font-size="14.00">employees</text>
<text text-anchor="middle" x="754.93" y="-240.2" font-family="Times New Roman,serif" font-size="14.00">[0..*]</text>
</g>
<!-- User1536019296&#45;&gt;Manager1536019296 -->
<g id="edge12" class="edge">
<title>User1536019296&#45;&gt;Manager1536019296</title>
<path fill="none" stroke="black" d="M681.71,-287.39C673.04,-276.64 667.36,-269.6 667.36,-269.6 667.36,-269.6 655.66,-244.71 641.88,-215.37"/>
<polygon fill="black" stroke="black" points="644.96,-213.71 637.54,-206.15 638.63,-216.69 644.96,-213.71"/>
<text text-anchor="middle" x="693.82" y="-257" font-family="Times New Roman,serif" font-size="14.00">managers</text>
<text text-anchor="middle" x="693.82" y="-240.2" font-family="Times New Roman,serif" font-size="14.00">[0..*]</text>
</g>
<!-- User1536019296&#45;&gt;Timesheet1536019296 -->
<g id="edge13" class="edge">
<title>User1536019296&#45;&gt;Timesheet1536019296</title>
<path fill="none" stroke="black" d="M882.37,-505.81C893.63,-516.56 901,-523.6 901,-523.6 901,-523.6 924.2,-586.02 947.67,-649.16"/>
<polygon fill="black" stroke="black" points="944.52,-650.73 951.28,-658.88 951.08,-648.29 944.52,-650.73"/>
<text text-anchor="middle" x="941.55" y="-544.6" font-family="Times New Roman,serif" font-size="14.00">timesheets</text>
<text text-anchor="middle" x="941.55" y="-527.8" font-family="Times New Roman,serif" font-size="14.00">[0..*]</text>
</g>
<!-- WorkEntry1536019296 -->
<g id="node12" class="node">
<title>WorkEntry1536019296</title>
<polygon fill="#ffffff" stroke="transparent" points="1099.5,-218 878.5,-218 878.5,-24 1099.5,-24 1099.5,-218"/>
<text text-anchor="start" x="884" y="-200.4" font-family="Times New Roman,serif" font-size="14.00">(C)WorkEntry</text>
<text text-anchor="start" x="883.96" y="-176.4" font-family="Times New Roman,serif" font-size="14.00">&#45; &#160;&#160;dateCreated: LocalDateTime [0..1]</text>
<text text-anchor="start" x="884" y="-152.4" font-family="Times New Roman,serif" font-size="14.00">&#45; &#160;&#160;dateUpdate: LocalDateTime [0..1]</text>
<text text-anchor="start" x="884" y="-128.4" font-family="Times New Roman,serif" font-size="14.00">&#45; &#160;&#160;endTime: LocalDateTime [0..1]</text>
<text text-anchor="start" x="884" y="-104.4" font-family="Times New Roman,serif" font-size="14.00">&#45; &#160;&#160;startTime: LocalDateTime [0..1]</text>
<text text-anchor="start" x="884" y="-80.4" font-family="Times New Roman,serif" font-size="14.00">&#45; &#160;&#160;timesheetId: Timesheet [0..1]</text>
<text text-anchor="start" x="884" y="-56.4" font-family="Times New Roman,serif" font-size="14.00">&#45; &#160;&#160;userId: User [0..1]</text>
<text text-anchor="start" x="884" y="-32.4" font-family="Times New Roman,serif" font-size="14.00">&#45; &#160;&#160;workEntryId: UUID [0..1]</text>
<polygon fill="black" stroke="black" points="879,-193 879,-193 1100,-193 1100,-193 879,-193"/>
<polygon fill="none" stroke="black" points="878.5,-24 878.5,-218 1099.5,-218 1099.5,-24 878.5,-24"/>
</g>
<!-- User1536019296&#45;&gt;WorkEntry1536019296 -->
<g id="edge14" class="edge">
<title>User1536019296&#45;&gt;WorkEntry1536019296</title>
<path fill="none" stroke="black" d="M881.51,-287.39C892.68,-276.64 900,-269.6 900,-269.6 900,-269.6 911.2,-251.03 925.64,-227.07"/>
<polygon fill="black" stroke="black" points="928.71,-228.76 930.88,-218.39 922.72,-225.15 928.71,-228.76"/>
<text text-anchor="middle" x="953.21" y="-257" font-family="Times New Roman,serif" font-size="14.00">workEntries</text>
<text text-anchor="middle" x="953.21" y="-240.2" font-family="Times New Roman,serif" font-size="14.00">[0..*]</text>
</g>
<!-- UserPrincipal1757435991 -->
<g id="node11" class="node">
<title>UserPrincipal1757435991</title>
<polygon fill="#ffffff" stroke="transparent" points="1257,-805.2 1141,-805.2 1141,-755.2 1257,-755.2 1257,-805.2"/>
<text text-anchor="start" x="1146" y="-787.6" font-family="Times New Roman,serif" font-size="14.00">(C)UserPrincipal</text>
<text text-anchor="start" x="1145.94" y="-763.6" font-family="Times New Roman,serif" font-size="14.00">&#45; &#160;&#160;user: User [0..1]</text>
<polygon fill="black" stroke="black" points="1141,-780.2 1141,-780.2 1257,-780.2 1257,-780.2 1141,-780.2"/>
<polygon fill="none" stroke="black" points="1141,-755.2 1141,-805.2 1257,-805.2 1257,-755.2 1141,-755.2"/>
</g>
<!-- UserPrincipal1757435991&#45;&gt;User1536019296 -->
<g id="edge15" class="edge">
<title>UserPrincipal1757435991&#45;&gt;User1536019296</title>
<path fill="none" stroke="black" d="M1191.05,-755C1173.3,-700.96 1132,-575.2 1132,-575.2 1132,-575.2 974,-505.6 974,-505.6 974,-505.6 938.26,-486.77 896.62,-464.83"/>
<polygon fill="black" stroke="black" points="898.13,-461.68 887.66,-460.11 894.87,-467.87 898.13,-461.68"/>
<text text-anchor="middle" x="1104.16" y="-544.6" font-family="Times New Roman,serif" font-size="14.00">user</text>
<text text-anchor="middle" x="1104.16" y="-527.8" font-family="Times New Roman,serif" font-size="14.00">[0..1]</text>
</g>
<!-- WorkEntry1536019296&#45;&gt;Timesheet1536019296 -->
<g id="edge16" class="edge">
<title>WorkEntry1536019296&#45;&gt;Timesheet1536019296</title>
<path fill="none" stroke="black" d="M990.69,-218.19C990.88,-228.88 991,-236 991,-236 991,-236 993.32,-487.81 994.8,-648.53"/>
<polygon fill="black" stroke="black" points="991.3,-649.02 994.89,-658.98 998.3,-648.95 991.3,-649.02"/>
<text text-anchor="middle" x="1025.66" y="-400.8" font-family="Times New Roman,serif" font-size="14.00">timesheetId</text>
<text text-anchor="middle" x="1025.66" y="-384" font-family="Times New Roman,serif" font-size="14.00">[0..1]</text>
</g>
<!-- WorkEntry1536019296&#45;&gt;User1536019296 -->
<g id="edge17" class="edge">
<title>WorkEntry1536019296&#45;&gt;User1536019296</title>
<path fill="none" stroke="black" d="M881.02,-218.19C869.02,-228.88 861.02,-236 861.02,-236 861.02,-236 850.45,-254.34 836.47,-278.58"/>
<polygon fill="black" stroke="black" points="833.36,-276.97 831.4,-287.38 839.42,-280.46 833.36,-276.97"/>
<text text-anchor="middle" x="878.49" y="-257" font-family="Times New Roman,serif" font-size="14.00">userId</text>
<text text-anchor="middle" x="878.49" y="-240.2" font-family="Times New Roman,serif" font-size="14.00">[0..1]</text>
</g>
</g>
</svg>
